<svg width="186" height="54" viewBox="0 0 186 54" fill="none" xmlns="http://www.w3.org/2000/svg">
<path d="M184.378 46.9224C184.378 49.7489 182.018 52.0384 179.098 52.0384H6.3169C3.39886 52.0384 1.03027 49.7489 1.03027 46.9224V6.12369C1.03027 3.29852 3.39886 1.00098 6.3169 1.00098H179.097C182.018 1.00098 184.377 3.29852 184.377 6.12369L184.378 46.9224Z" fill="black"/>
<path d="M178.541 1.0626C181.72 1.0626 184.307 3.5604 184.307 6.63003V46.4092C184.307 49.4788 181.72 51.9766 178.541 51.9766H6.86695C3.68755 51.9766 1.10043 49.4788 1.10043 46.4092V6.63003C1.10043 3.5604 3.68755 1.0626 6.86695 1.0626H178.541ZM178.541 0.000168869H6.86695C3.09185 0.000168869 0 2.98526 0 6.63003V46.4092C0 50.054 3.09185 53.0391 6.86695 53.0391H178.541C182.316 53.0391 185.408 50.054 185.408 46.4092V6.63003C185.408 2.98526 182.316 0.000168869 178.541 0.000168869Z" fill="#A6A6A6"/>
<path d="M41.3771 26.2329C41.3373 21.9593 45.0015 19.8801 45.169 19.7833C43.0938 16.8622 39.8774 16.4631 38.7471 16.4313C36.0456 16.1568 33.4252 17.992 32.049 17.992C30.6454 17.992 28.5263 16.4578 26.2423 16.5029C23.3033 16.5466 20.5538 18.1895 19.0458 20.7407C15.9337 25.9425 18.2547 33.5867 21.2363 37.7914C22.7278 39.8506 24.4707 42.1498 26.7519 42.069C28.9836 41.9801 29.8173 40.6953 32.5105 40.6953C35.179 40.6953 35.9618 42.069 38.2883 42.0172C40.6835 41.9801 42.1915 39.9487 43.6308 37.8709C45.3544 35.5107 46.0466 33.1863 46.0741 33.0669C46.0178 33.0484 41.4224 31.3551 41.3771 26.2329Z" fill="white"/>
<path d="M36.9823 13.6653C38.1826 12.216 39.0039 10.2443 38.7759 8.24341C37.0386 8.31766 34.8659 9.40363 33.6147 10.8211C32.5077 12.0702 31.5189 14.1175 31.7744 16.0428C33.7259 16.1833 35.7297 15.0921 36.9823 13.6653Z" fill="white"/>
<path d="M73.6756 41.7737H70.5567L68.8482 36.5905H62.9096L61.2822 41.7737H58.2456L64.1292 24.1277H67.7632L73.6756 41.7737ZM68.3332 34.4159L66.7881 29.8082C66.6247 29.3374 66.3184 28.2289 65.8665 26.4839H65.8116C65.6317 27.2344 65.3419 28.343 64.9436 29.8082L63.426 34.4159H68.3332V34.4159Z" fill="white"/>
<path d="M88.8062 35.2549C88.8062 37.4188 88.2006 39.1293 86.9893 40.385C85.9043 41.5028 84.557 42.0611 82.9487 42.0611C81.2128 42.0611 79.9657 41.4591 79.2062 40.2551H79.1513V46.9579H76.2232V33.238C76.2232 31.8776 76.1862 30.4814 76.1147 29.0493H78.6899L78.8533 31.0661H78.9082C79.8847 29.5465 81.3666 28.7881 83.3553 28.7881C84.9099 28.7881 86.2078 29.3808 87.2461 30.5675C88.2871 31.7556 88.8062 33.3176 88.8062 35.2549ZM85.8232 35.3583C85.8232 34.1198 85.5348 33.0988 84.9553 32.2953C84.3221 31.4573 83.472 31.0383 82.4062 31.0383C81.6838 31.0383 81.0274 31.2716 80.4409 31.7317C79.8531 32.1958 79.4686 32.8018 79.2886 33.5523C79.198 33.9024 79.1527 34.1888 79.1527 34.4142V36.5357C79.1527 37.4613 79.4466 38.2423 80.0344 38.8801C80.6222 39.5179 81.3858 39.8361 82.3252 39.8361C83.428 39.8361 84.2864 39.425 84.9003 38.6056C85.5156 37.7848 85.8232 36.7028 85.8232 35.3583Z" fill="white"/>
<path d="M103.965 35.2549C103.965 37.4188 103.359 39.1293 102.146 40.385C101.063 41.5028 99.7153 42.0611 98.107 42.0611C96.3711 42.0611 95.124 41.4591 94.3659 40.2551H94.311V46.9579H91.3829V33.238C91.3829 31.8776 91.3458 30.4814 91.2744 29.0493H93.8495L94.013 31.0661H94.0679C95.043 29.5465 96.5249 28.7881 98.5149 28.7881C100.068 28.7881 101.366 29.3808 102.407 30.5675C103.444 31.7556 103.965 33.3176 103.965 35.2549ZM100.982 35.3583C100.982 34.1198 100.692 33.0988 100.112 32.2953C99.479 31.4573 98.6317 31.0383 97.5645 31.0383C96.8408 31.0383 96.1857 31.2716 95.5979 31.7317C95.01 32.1958 94.6269 32.8018 94.4469 33.5523C94.3577 33.9024 94.311 34.1888 94.311 34.4142V36.5357C94.311 37.4613 94.6049 38.2423 95.1899 38.8801C95.7778 39.5165 96.5414 39.8361 97.4835 39.8361C98.5864 39.8361 99.4447 39.425 100.059 38.6056C100.674 37.7848 100.982 36.7028 100.982 35.3583Z" fill="white"/>
<path d="M120.912 36.825C120.912 38.326 120.372 39.5472 119.289 40.49C118.098 41.5202 116.44 42.0347 114.31 42.0347C112.343 42.0347 110.767 41.6688 109.573 40.9355L110.252 38.5792C111.537 39.3297 112.948 39.7063 114.484 39.7063C115.587 39.7063 116.446 39.465 117.062 38.985C117.676 38.505 117.983 37.8606 117.983 37.057C117.983 36.341 117.73 35.7377 117.223 35.2484C116.719 34.7591 115.877 34.3043 114.701 33.884C111.501 32.7317 109.903 31.0437 109.903 28.8241C109.903 27.3734 110.463 26.184 111.585 25.2585C112.703 24.3317 114.195 23.8689 116.06 23.8689C117.723 23.8689 119.105 24.1487 120.207 24.7069L119.475 27.0115C118.445 26.4705 117.281 26.2 115.977 26.2C114.947 26.2 114.143 26.4453 113.566 26.9332C113.078 27.3695 112.834 27.9012 112.834 28.531C112.834 29.2285 113.112 29.8053 113.673 30.2588C114.16 30.6778 115.046 31.1312 116.332 31.6205C117.904 32.2318 119.059 32.9465 119.802 33.766C120.543 34.5828 120.912 35.6051 120.912 36.825Z" fill="white"/>
<path d="M130.593 31.1711H127.366V37.3488C127.366 38.9201 127.934 39.7051 129.074 39.7051C129.597 39.7051 130.031 39.6613 130.375 39.5738L130.456 41.7205C129.879 41.9287 129.119 42.0335 128.179 42.0335C127.022 42.0335 126.118 41.6927 125.466 41.0125C124.817 40.3309 124.49 39.1879 124.49 37.5822V31.1685H122.567V29.0469H124.49V26.7172L127.366 25.8792V29.0469H130.593V31.1711Z" fill="white"/>
<path d="M145.155 35.307C145.155 37.2628 144.576 38.8685 143.419 40.1242C142.206 41.417 140.597 42.0615 138.59 42.0615C136.657 42.0615 135.117 41.4422 133.969 40.2038C132.821 38.9653 132.247 37.402 132.247 35.5178C132.247 33.5461 132.837 31.931 134.022 30.6753C135.205 29.4183 136.801 28.7898 138.807 28.7898C140.741 28.7898 142.297 29.409 143.471 30.6488C144.595 31.8515 145.155 33.4042 145.155 35.307ZM142.117 35.3984C142.117 34.225 141.858 33.2185 141.332 32.3792C140.718 31.3635 139.84 30.857 138.703 30.857C137.526 30.857 136.632 31.3648 136.018 32.3792C135.492 33.2199 135.232 34.2422 135.232 35.4515C135.232 36.625 135.492 37.6314 136.018 38.4694C136.651 39.4851 137.536 39.9916 138.677 39.9916C139.795 39.9916 140.672 39.4745 141.305 38.4429C141.845 37.5876 142.117 36.5706 142.117 35.3984Z" fill="white"/>
<path d="M154.673 31.5355C154.383 31.4838 154.074 31.4573 153.75 31.4573C152.72 31.4573 151.924 31.8325 151.363 32.5843C150.876 33.2473 150.631 34.0853 150.631 35.0971V41.7733H147.704L147.732 33.0564C147.732 31.5899 147.695 30.2546 147.622 29.0506H150.172L150.28 31.4851H150.361C150.67 30.6484 151.157 29.9748 151.825 29.4696C152.477 29.0148 153.182 28.7881 153.941 28.7881C154.212 28.7881 154.456 28.8066 154.673 28.8398V31.5355Z" fill="white"/>
<path d="M167.768 34.8093C167.768 35.3158 167.734 35.7428 167.661 36.0915H158.877C158.911 37.3485 159.336 38.3098 160.152 38.9728C160.892 39.5655 161.849 39.8625 163.025 39.8625C164.325 39.8625 165.512 39.6623 166.579 39.2606L167.038 41.223C165.791 41.7481 164.318 42.0093 162.62 42.0093C160.576 42.0093 158.972 41.4285 157.804 40.2683C156.64 39.1081 156.056 37.5501 156.056 35.5956C156.056 33.6769 156.599 32.0791 157.685 30.8048C158.822 29.4444 160.359 28.7642 162.293 28.7642C164.192 28.7642 165.63 29.4444 166.607 30.8048C167.38 31.8855 167.768 33.2221 167.768 34.8093ZM164.976 34.076C164.996 33.238 164.805 32.514 164.408 31.9027C163.901 31.1164 163.122 30.7239 162.074 30.7239C161.117 30.7239 160.338 31.1072 159.744 31.8762C159.256 32.4875 158.966 33.2208 158.877 34.0747H164.976V34.076Z" fill="white"/>
<path d="M67.365 13.2717C67.365 14.8324 66.8802 16.0072 65.9119 16.7961C65.0151 17.5241 63.7406 17.8887 62.0898 17.8887C61.2712 17.8887 60.5708 17.8542 59.9844 17.7853V9.25797C60.7494 9.13863 61.5734 9.07764 62.4633 9.07764C64.0359 9.07764 65.2211 9.4078 66.0204 10.0681C66.9159 10.8147 67.365 11.8821 67.365 13.2717ZM65.8474 13.3101C65.8474 12.2984 65.57 11.5227 65.0151 10.9817C64.4603 10.4421 63.65 10.1716 62.5828 10.1716C62.1296 10.1716 61.7437 10.2007 61.4237 10.2617V16.7444C61.6009 16.7709 61.925 16.7829 62.3961 16.7829C63.4975 16.7829 64.3476 16.4872 64.9464 15.8958C65.5452 15.3044 65.8474 14.4425 65.8474 13.3101Z" fill="white"/>
<path d="M75.4118 14.635C75.4118 15.5963 75.1275 16.3839 74.5589 17.0018C73.9628 17.637 73.1731 17.9539 72.187 17.9539C71.2366 17.9539 70.4799 17.6502 69.9154 17.0403C69.3523 16.4317 69.0708 15.6639 69.0708 14.7384C69.0708 13.7704 69.3606 12.9762 69.9429 12.3596C70.5252 11.743 71.3081 11.4341 72.2942 11.4341C73.2445 11.4341 74.0081 11.7377 74.5863 12.3464C75.1357 12.9377 75.4118 13.7015 75.4118 14.635ZM73.9189 14.6801C73.9189 14.1033 73.7898 13.6087 73.533 13.1963C73.2308 12.6977 72.8009 12.4485 72.242 12.4485C71.6638 12.4485 71.2243 12.6977 70.9221 13.1963C70.6639 13.6087 70.5362 14.1112 70.5362 14.7053C70.5362 15.2821 70.6653 15.7766 70.9221 16.189C71.2339 16.6876 71.6679 16.9369 72.2282 16.9369C72.7776 16.9369 73.2088 16.6836 73.5192 16.1758C73.7857 15.7554 73.9189 15.2569 73.9189 14.6801Z" fill="white"/>
<path d="M86.2011 11.5613L84.1753 17.8119H82.8568L82.0177 15.0976C81.8048 14.4201 81.6318 13.7465 81.4972 13.0782H81.4711C81.3461 13.765 81.1731 14.4373 80.9506 15.0976L80.0593 17.8119H78.7257L76.8208 11.5613H78.2999L79.032 14.5328C79.2091 15.2355 79.3547 15.9052 79.4714 16.539H79.4975C79.6047 16.0165 79.7818 15.3509 80.0318 14.546L80.9506 11.5626H82.1235L83.0038 14.4824C83.2167 15.1944 83.3897 15.88 83.5229 16.5403H83.5628C83.6603 15.8972 83.8072 15.2117 84.0023 14.4824L84.7878 11.5626H86.2011V11.5613Z" fill="white"/>
<path d="M93.6626 17.8121H92.2233V14.232C92.2233 13.1287 91.7893 12.5771 90.9186 12.5771C90.4915 12.5771 90.1468 12.7283 89.8789 13.032C89.6139 13.3356 89.4793 13.6936 89.4793 14.1033V17.8108H88.04V13.3475C88.04 12.7986 88.0221 12.2032 87.9878 11.5588H89.2527L89.32 12.536H89.3598C89.5274 12.2324 89.7773 11.9818 90.1056 11.7816C90.4956 11.5482 90.9323 11.4302 91.4103 11.4302C92.0146 11.4302 92.5172 11.6185 92.9169 11.9964C93.414 12.4591 93.6626 13.15 93.6626 14.0675V17.8121V17.8121Z" fill="white"/>
<path d="M97.6318 17.8118H96.1938V8.69312H97.6318V17.8118Z" fill="white"/>
<path d="M106.106 14.635C106.106 15.5963 105.821 16.3839 105.253 17.0018C104.657 17.637 103.866 17.9539 102.881 17.9539C101.929 17.9539 101.172 17.6502 100.609 17.0403C100.046 16.4317 99.7646 15.6639 99.7646 14.7384C99.7646 13.7704 100.054 12.9762 100.637 12.3596C101.219 11.743 102.002 11.4341 102.987 11.4341C103.938 11.4341 104.701 11.7377 105.28 12.3464C105.83 12.9377 106.106 13.7015 106.106 14.635ZM104.611 14.6801C104.611 14.1033 104.482 13.6087 104.225 13.1963C103.925 12.6977 103.493 12.4485 102.936 12.4485C102.356 12.4485 101.917 12.6977 101.616 13.1963C101.358 13.6087 101.23 14.1112 101.23 14.7053C101.23 15.2821 101.359 15.7766 101.616 16.189C101.928 16.6876 102.362 16.9369 102.922 16.9369C103.471 16.9369 103.901 16.6836 104.212 16.1758C104.479 15.7554 104.611 15.2569 104.611 14.6801Z" fill="white"/>
<path d="M113.072 17.812H111.779L111.672 17.092H111.633C111.19 17.6662 110.56 17.9539 109.741 17.9539C109.13 17.9539 108.636 17.7643 108.264 17.3877C107.926 17.0456 107.757 16.62 107.757 16.1148C107.757 15.351 108.086 14.7689 108.75 14.3658C109.412 13.9627 110.343 13.7651 111.542 13.7744V13.6577C111.542 12.8343 111.094 12.4233 110.197 12.4233C109.559 12.4233 108.996 12.5784 108.509 12.886L108.217 11.9738C108.818 11.6144 109.561 11.4341 110.438 11.4341C112.13 11.4341 112.978 12.296 112.978 14.0197V16.3216C112.978 16.9461 113.01 17.4434 113.072 17.812ZM111.578 15.6639V14.7C109.99 14.6734 109.196 15.0938 109.196 15.9596C109.196 16.2858 109.287 16.5298 109.472 16.6929C109.658 16.856 109.894 16.9369 110.175 16.9369C110.491 16.9369 110.787 16.8401 111.056 16.6478C111.326 16.4542 111.492 16.2089 111.554 15.9079C111.569 15.8403 111.578 15.7581 111.578 15.6639Z" fill="white"/>
<path d="M121.25 17.8118H119.973L119.906 16.8081H119.866C119.458 17.5718 118.763 17.9537 117.786 17.9537C117.006 17.9537 116.357 17.658 115.842 17.0666C115.327 16.4752 115.07 15.7075 115.07 14.7647C115.07 13.753 115.349 12.9336 115.909 12.3077C116.451 11.7243 117.116 11.4326 117.907 11.4326C118.777 11.4326 119.385 11.715 119.731 12.2812H119.759V8.69312H121.199V16.1278C121.199 16.7365 121.216 17.2973 121.25 17.8118ZM119.759 15.1758V14.1336C119.759 13.9532 119.745 13.8074 119.719 13.696C119.638 13.3619 119.463 13.0808 119.198 12.854C118.93 12.6273 118.608 12.5132 118.235 12.5132C117.698 12.5132 117.278 12.7188 116.969 13.1311C116.663 13.5435 116.508 14.0699 116.508 14.713C116.508 15.3309 116.655 15.8321 116.95 16.218C117.262 16.6291 117.682 16.8346 118.208 16.8346C118.68 16.8346 119.058 16.6635 119.345 16.3201C119.623 16.0032 119.759 15.6213 119.759 15.1758Z" fill="white"/>
<path d="M133.56 14.635C133.56 15.5963 133.275 16.3839 132.707 17.0018C132.111 17.637 131.322 17.9539 130.335 17.9539C129.386 17.9539 128.629 17.6502 128.063 17.0403C127.5 16.4317 127.219 15.6639 127.219 14.7384C127.219 13.7704 127.509 12.9762 128.091 12.3596C128.673 11.743 129.456 11.4341 130.443 11.4341C131.392 11.4341 132.157 11.7377 132.734 12.3464C133.284 12.9377 133.56 13.7015 133.56 14.635ZM132.068 14.6801C132.068 14.1033 131.939 13.6087 131.682 13.1963C131.379 12.6977 130.95 12.4485 130.39 12.4485C129.813 12.4485 129.374 12.6977 129.07 13.1963C128.812 13.6087 128.684 14.1112 128.684 14.7053C128.684 15.2821 128.813 15.7766 129.07 16.189C129.382 16.6876 129.816 16.9369 130.376 16.9369C130.926 16.9369 131.358 16.6836 131.669 16.1758C131.934 15.7554 132.068 15.2569 132.068 14.6801Z" fill="white"/>
<path d="M141.298 17.8121H139.861V14.232C139.861 13.1287 139.427 12.5771 138.554 12.5771C138.127 12.5771 137.783 12.7283 137.516 13.032C137.25 13.3356 137.116 13.6936 137.116 14.1033V17.8108H135.676V13.3475C135.676 12.7986 135.659 12.2032 135.625 11.5588H136.889L136.956 12.536H136.996C137.165 12.2324 137.415 11.9818 137.741 11.7816C138.133 11.5482 138.568 11.4302 139.047 11.4302C139.65 11.4302 140.153 11.6185 140.553 11.9964C141.051 12.4591 141.298 13.15 141.298 14.0675V17.8121V17.8121Z" fill="white"/>
<path d="M150.985 12.6022H149.4V15.6387C149.4 16.4104 149.682 16.7963 150.239 16.7963C150.497 16.7963 150.712 16.7751 150.881 16.7313L150.918 17.7854C150.633 17.8889 150.26 17.9406 149.8 17.9406C149.231 17.9406 148.789 17.7735 148.469 17.4394C148.148 17.1052 147.988 16.543 147.988 15.7541V12.6022H147.042V11.5613H147.988V10.4157L149.399 10.0046V11.56H150.984V12.6022H150.985Z" fill="white"/>
<path d="M158.605 17.8118H157.164V14.2582C157.164 13.1378 156.73 12.5769 155.861 12.5769C155.193 12.5769 154.737 12.9018 154.487 13.5515C154.445 13.6881 154.42 13.8551 154.42 14.0514V17.8105H152.982V8.69312H154.42V12.4602H154.447C154.901 11.7747 155.55 11.4326 156.392 11.4326C156.988 11.4326 157.481 11.6209 157.873 11.9988C158.36 12.4695 158.605 13.1696 158.605 14.0951V17.8118V17.8118Z" fill="white"/>
<path d="M166.465 14.3907C166.465 14.64 166.446 14.8495 166.411 15.0206H162.095C162.114 15.6385 162.32 16.1092 162.72 16.4354C163.085 16.7271 163.556 16.8729 164.133 16.8729C164.771 16.8729 165.354 16.7748 165.878 16.5773L166.104 17.5426C165.49 17.7998 164.767 17.9284 163.931 17.9284C162.928 17.9284 162.139 17.6433 161.567 17.0732C160.993 16.503 160.709 15.7379 160.709 14.7779C160.709 13.8351 160.974 13.0502 161.508 12.4243C162.066 11.756 162.82 11.4219 163.772 11.4219C164.703 11.4219 165.41 11.756 165.888 12.4243C166.274 12.9547 166.465 13.6111 166.465 14.3907ZM165.091 14.0314C165.102 13.619 165.008 13.2637 164.813 12.964C164.563 12.5781 164.182 12.3845 163.667 12.3845C163.198 12.3845 162.814 12.5728 162.522 12.9507C162.283 13.2517 162.141 13.6111 162.095 14.0314H165.091Z" fill="white"/>
</svg>
