<svg width="186" height="54" viewBox="0 0 186 54" fill="none" xmlns="http://www.w3.org/2000/svg">
<path d="M178.664 54H7.22665C3.45674 54 0.369141 51.0149 0.369141 47.3701V7.59096C0.369141 3.9462 3.45674 0.961102 7.22665 0.961102H178.664C182.434 0.961102 185.522 3.9462 185.522 7.59096V47.3701C185.522 51.0149 182.434 54 178.664 54Z" fill="black"/>
<path d="M178.664 2.02354C181.84 2.02354 184.423 4.52134 184.423 7.59096V47.3701C184.423 50.4398 181.84 52.9376 178.664 52.9376H7.22665C4.05163 52.9376 1.46806 50.4398 1.46806 47.3701V7.59096C1.46806 4.52134 4.05163 2.02354 7.22665 2.02354H178.664ZM178.664 0.961102H7.22665C3.45674 0.961102 0.369141 3.9462 0.369141 7.59096V47.3701C0.369141 51.0149 3.45674 54 7.22665 54H178.664C182.434 54 185.522 51.0149 185.522 47.3701V7.59096C185.522 3.9462 182.434 0.961102 178.664 0.961102Z" fill="#A6A6A6"/>
<path d="M65.4021 14.5443C65.4021 15.6515 65.0593 16.5383 64.3838 17.1996C63.6072 17.9836 62.5957 18.3781 61.3562 18.3781C60.1716 18.3781 59.1601 17.9769 58.3303 17.1863C57.4989 16.3841 57.084 15.3996 57.084 14.2211C57.084 13.0427 57.4989 12.0581 58.3303 11.2626C59.1601 10.4653 60.1716 10.0642 61.3562 10.0642C61.946 10.0642 62.5083 10.1819 63.0449 10.4007C63.5798 10.6211 64.0152 10.9195 64.3307 11.2874L63.6141 11.9869C63.0637 11.3587 62.3146 11.0487 61.3562 11.0487C60.4922 11.0487 59.743 11.3405 59.107 11.9289C58.4778 12.5189 58.1623 13.283 58.1623 14.2211C58.1623 15.1593 58.4778 15.93 59.107 16.52C59.743 17.1018 60.4922 17.4001 61.3562 17.4001C62.2734 17.4001 63.0449 17.1018 63.6535 16.5134C64.0546 16.1239 64.2827 15.5869 64.3427 14.9007H61.3562V13.9427H65.3404C65.3884 14.1499 65.4021 14.3504 65.4021 14.5443V14.5443Z" fill="white" stroke="white" stroke-width="0.16" stroke-miterlimit="10"/>
<path d="M71.7234 11.2223H67.9809V13.7417H71.3548V14.6997H67.9809V17.219H71.7234V18.1953H66.9214V10.2461H71.7234V11.2223Z" fill="white" stroke="white" stroke-width="0.16" stroke-miterlimit="10"/>
<path d="M76.1841 18.1953H75.1247V11.2223H72.8291V10.2461H78.4814V11.2223H76.1841V18.1953V18.1953Z" fill="white" stroke="white" stroke-width="0.16" stroke-miterlimit="10"/>
<path d="M82.5713 18.1953V10.2461H83.6291V18.1953H82.5713Z" fill="white" stroke="white" stroke-width="0.16" stroke-miterlimit="10"/>
<path d="M88.3184 18.1953H87.2675V11.2223H84.9634V10.2461H90.6225V11.2223H88.3184V18.1953Z" fill="white" stroke="white" stroke-width="0.16" stroke-miterlimit="10"/>
<path d="M101.323 17.1731C100.512 17.9769 99.5078 18.3781 98.3095 18.3781C97.1043 18.3781 96.0996 17.9769 95.2887 17.1731C94.4795 16.3709 94.0767 15.3863 94.0767 14.2211C94.0767 13.0559 94.4795 12.0714 95.2887 11.2692C96.0996 10.4653 97.1043 10.0642 98.3095 10.0642C99.501 10.0642 100.506 10.4653 101.316 11.2758C102.133 12.0847 102.535 13.0626 102.535 14.2211C102.535 15.3863 102.133 16.3709 101.323 17.1731ZM96.0722 16.5068C96.6825 17.1018 97.4248 17.4001 98.3095 17.4001C99.1872 17.4001 99.9364 17.1018 100.54 16.5068C101.148 15.9117 101.457 15.1477 101.457 14.2211C101.457 13.2946 101.148 12.5305 100.54 11.9355C99.9364 11.3405 99.1872 11.0421 98.3095 11.0421C97.4248 11.0421 96.6825 11.3405 96.0722 11.9355C95.4636 12.5305 95.155 13.2946 95.155 14.2211C95.155 15.1477 95.4636 15.9117 96.0722 16.5068V16.5068Z" fill="white" stroke="white" stroke-width="0.16" stroke-miterlimit="10"/>
<path d="M104.022 18.1953V10.2461H105.308L109.306 16.4284H109.352L109.306 14.9003V10.2461H110.364V18.1953H109.26L105.073 11.708H105.027L105.073 13.2428V18.1953H104.022V18.1953Z" fill="white" stroke="white" stroke-width="0.16" stroke-miterlimit="10"/>
<path d="M93.8161 29.8044C90.5948 29.8044 87.9632 32.1745 87.9632 35.4447C87.9632 38.6884 90.5948 41.0834 93.8161 41.0834C97.0443 41.0834 99.6759 38.6884 99.6759 35.4447C99.6759 32.1745 97.0443 29.8044 93.8161 29.8044ZM93.8161 38.8624C92.0486 38.8624 90.5279 37.4519 90.5279 35.4447C90.5279 33.411 92.0486 32.0254 93.8161 32.0254C95.5836 32.0254 97.1112 33.411 97.1112 35.4447C97.1112 37.4519 95.5836 38.8624 93.8161 38.8624V38.8624ZM81.0457 29.8044C77.8175 29.8044 75.1928 32.1745 75.1928 35.4447C75.1928 38.6884 77.8175 41.0834 81.0457 41.0834C84.2722 41.0834 86.8986 38.6884 86.8986 35.4447C86.8986 32.1745 84.2722 29.8044 81.0457 29.8044ZM81.0457 38.8624C79.2765 38.8624 77.7507 37.4519 77.7507 35.4447C77.7507 33.411 79.2765 32.0254 81.0457 32.0254C82.8132 32.0254 84.3339 33.411 84.3339 35.4447C84.3339 37.4519 82.8132 38.8624 81.0457 38.8624ZM65.8495 31.5331V33.9298H71.7692C71.5961 35.269 71.1332 36.2536 70.4234 36.9398C69.5594 37.7685 68.2136 38.6884 65.8495 38.6884C62.2064 38.6884 59.3537 35.8458 59.3537 32.3237C59.3537 28.8016 62.2064 25.9591 65.8495 25.9591C67.8193 25.9591 69.2525 26.7033 70.3103 27.6679L72.0572 25.9789C70.5777 24.6132 68.6096 23.564 65.8495 23.564C60.8538 23.564 56.6553 27.4939 56.6553 32.3237C56.6553 37.1536 60.8538 41.0834 65.8495 41.0834C68.5496 41.0834 70.5777 40.2282 72.1721 38.6237C73.8059 37.0442 74.3151 34.8232 74.3151 33.0298C74.3151 32.4729 74.2671 31.9607 74.1814 31.5331H65.8495ZM127.989 33.3911C127.507 32.1298 126.021 29.8044 122.993 29.8044C119.993 29.8044 117.495 32.09 117.495 35.4447C117.495 38.6038 119.967 41.0834 123.281 41.0834C125.961 41.0834 127.507 39.5039 128.143 38.584L126.154 37.3027C125.491 38.2409 124.587 38.8624 123.281 38.8624C121.983 38.8624 121.052 38.2873 120.456 37.1536L128.258 34.0326L127.989 33.3911V33.3911ZM120.034 35.269C119.967 33.0944 121.781 31.9806 123.081 31.9806C124.099 31.9806 124.963 32.4729 125.251 33.1773L120.034 35.269V35.269ZM113.693 40.7403H116.257V24.1657H113.693V40.7403ZM109.492 31.0607H109.407C108.831 30.4011 107.732 29.8044 106.34 29.8044C103.418 29.8044 100.747 32.2839 100.747 35.463C100.747 38.6237 103.418 41.0834 106.34 41.0834C107.732 41.0834 108.831 40.4818 109.407 39.8022H109.492V40.611C109.492 42.7674 108.301 43.926 106.379 43.926C104.812 43.926 103.84 42.832 103.439 41.9121L101.209 42.8122C101.851 44.3072 103.554 46.147 106.379 46.147C109.386 46.147 111.923 44.4365 111.923 40.2746V30.1475H109.492V31.0607V31.0607ZM106.559 38.8624C104.792 38.8624 103.312 37.432 103.312 35.463C103.312 33.4757 104.792 32.0254 106.559 32.0254C108.301 32.0254 109.674 33.4757 109.674 35.463C109.674 37.432 108.301 38.8624 106.559 38.8624V38.8624ZM139.996 24.1657H133.862V40.7403H136.42V34.4602H139.996C142.837 34.4602 145.623 32.4729 145.623 29.3121C145.623 26.153 142.83 24.1657 139.996 24.1657V24.1657ZM140.063 32.1547H136.42V26.4712H140.063C141.973 26.4712 143.063 28.0044 143.063 29.3121C143.063 30.595 141.973 32.1547 140.063 32.1547ZM155.875 29.7729C154.027 29.7729 152.105 30.5618 151.315 32.3105L153.584 33.2303C154.073 32.3105 154.971 32.0121 155.921 32.0121C157.248 32.0121 158.594 32.7828 158.614 34.1436V34.3176C158.152 34.0591 157.161 33.6762 155.942 33.6762C153.497 33.6762 151.006 34.9773 151.006 37.4055C151.006 39.6265 153.008 41.0569 155.259 41.0569C156.981 41.0569 157.93 40.3061 158.527 39.4326H158.614V40.7138H161.085V34.3558C161.085 31.4171 158.815 29.7729 155.875 29.7729ZM155.566 38.8558C154.73 38.8558 153.564 38.4547 153.564 37.4519C153.564 36.169 155.018 35.6768 156.276 35.6768C157.402 35.6768 157.93 35.9171 158.614 36.2337C158.414 37.7685 157.048 38.8558 155.566 38.8558V38.8558ZM170.085 30.1359L167.145 37.321H167.058L164.018 30.1359H161.26L165.827 40.1768L163.221 45.7641H165.894L172.931 30.1359H170.085V30.1359ZM147.029 40.7403H149.593V24.1657H147.029V40.7403Z" fill="white"/>
<path d="M14.6814 10.9572C14.2786 11.3649 14.0454 11.9997 14.0454 12.8218V42.1457C14.0454 42.9678 14.2786 43.6026 14.6814 44.0103L14.7809 44.0999L31.7772 27.6744V27.2865L14.7809 10.861L14.6814 10.9572Z" fill="url(#paint0_linear_205_34)"/>
<path d="M37.4355 33.1521L31.7764 27.6742V27.2863L37.4424 21.8084L37.5693 21.8797L44.2793 25.5709C46.1943 26.6184 46.1943 28.3421 44.2793 29.3963L37.5693 33.0808L37.4355 33.1521V33.1521Z" fill="url(#paint1_linear_205_34)"/>
<path d="M37.5698 33.0813L31.7769 27.4807L14.6812 44.0106C15.3172 44.657 16.3544 44.7349 17.5339 44.0885L37.5698 33.0813" fill="url(#paint2_linear_205_34)"/>
<path d="M37.5698 21.8799L17.5339 10.8727C16.3544 10.2329 15.3172 10.3108 14.6812 10.9572L31.7769 27.4805L37.5698 21.8799Z" fill="url(#paint3_linear_205_34)"/>
<defs>
<linearGradient id="paint0_linear_205_34" x1="30.2682" y1="42.4511" x2="8.02783" y2="19.4471" gradientUnits="userSpaceOnUse">
<stop stop-color="#00A0FF"/>
<stop offset="0.0066" stop-color="#00A1FF"/>
<stop offset="0.2601" stop-color="#00BEFF"/>
<stop offset="0.5122" stop-color="#00D2FF"/>
<stop offset="0.7604" stop-color="#00DFFF"/>
<stop offset="1" stop-color="#00E3FF"/>
</linearGradient>
<linearGradient id="paint1_linear_205_34" x1="46.7729" y1="27.4784" x2="13.5868" y2="27.4784" gradientUnits="userSpaceOnUse">
<stop stop-color="#FFE000"/>
<stop offset="0.4087" stop-color="#FFBD00"/>
<stop offset="0.7754" stop-color="#FFA500"/>
<stop offset="1" stop-color="#FF9C00"/>
</linearGradient>
<linearGradient id="paint2_linear_205_34" x1="34.4198" y1="24.4361" x2="4.26013" y2="-6.75914" gradientUnits="userSpaceOnUse">
<stop stop-color="#FF3A44"/>
<stop offset="1" stop-color="#C31162"/>
</linearGradient>
<linearGradient id="paint3_linear_205_34" x1="10.3778" y1="53.7663" x2="23.8454" y2="39.8363" gradientUnits="userSpaceOnUse">
<stop stop-color="#32A071"/>
<stop offset="0.0685" stop-color="#2DA771"/>
<stop offset="0.4762" stop-color="#15CF74"/>
<stop offset="0.8009" stop-color="#06E775"/>
<stop offset="1" stop-color="#00F076"/>
</linearGradient>
</defs>
</svg>
