<svg width="11" height="11" viewBox="0 0 11 11" fill="none" xmlns="http://www.w3.org/2000/svg">
<path d="M9.625 2.61202H1.03125V2.26252L8.59375 1.6474V2.26252H9.625V1.21402C9.625 0.445124 9.01244 -0.0945027 8.26444 0.0138421L1.36125 1.01621C0.612563 1.12525 0 1.84312 0 2.61202V9.602C0 9.97278 0.144866 10.3284 0.402728 10.5905C0.660591 10.8527 1.01033 11 1.375 11H9.625C9.98967 11 10.3394 10.8527 10.5973 10.5905C10.8551 10.3284 11 9.97278 11 9.602V4.01002C11 3.63924 10.8551 3.28366 10.5973 3.02148C10.3394 2.75931 9.98967 2.61202 9.625 2.61202ZM8.59375 7.5092C8.45828 7.50916 8.32414 7.48198 8.199 7.42923C8.07386 7.37648 7.96016 7.29918 7.8644 7.20176C7.76864 7.10433 7.69269 6.98868 7.64089 6.86141C7.58909 6.73414 7.56245 6.59774 7.5625 6.46001C7.56255 6.32227 7.58927 6.18589 7.64116 6.05866C7.69304 5.93142 7.76907 5.81582 7.86489 5.71846C7.96071 5.6211 8.07446 5.54388 8.19964 5.49121C8.32481 5.43855 8.45897 5.41146 8.59444 5.41151C8.86803 5.4116 9.13039 5.52219 9.32378 5.71896C9.51718 5.91572 9.62578 6.18253 9.62569 6.4607C9.6256 6.73888 9.51682 7.00562 9.3233 7.20225C9.12977 7.39888 8.86735 7.50929 8.59375 7.5092Z" fill="#047857"/>
</svg>
